<svg width="93" height="24" viewBox="0 0 93 24" fill="none" xmlns="http://www.w3.org/2000/svg">
<g clip-path="url(#clip0_212_962)">
<path d="M2.70957 10.1539H6.8013V7.78419H2.70957V2.4455H7.46501V0.0275879H0V18.3169H7.54028V15.899H2.70957V10.1539Z" fill="#6A38EB"/>
<path d="M34.506 15.9748H30.8453V0.0275879H28.1357V16.643C28.1357 17.7176 28.7105 18.3169 29.7779 18.3169H35.5597C36.634 18.3169 37.2224 17.7176 37.2224 16.643V0.0275879H34.506V15.9748Z" fill="#6A38EB"/>
<path d="M42.1695 0.0275879H39.46V18.3169H42.1695V0.0275879Z" fill="#6A38EB"/>
<path d="M43.6201 2.4455H46.5965V18.3169H49.3061V2.4455H52.3031V0.0275879H43.6201V2.4455Z" fill="#6A38EB"/>
<path d="M58.1258 7.97707L55.9636 0.0275879H53.1582V0.124029L56.7436 11.5936V18.3169H59.4805V11.5936L63.0728 0.124029V0.0275879H60.2879L58.1258 7.97707Z" fill="#6A38EB"/>
<path d="M71.5369 0.0275879H66.0699C65.023 0.0275879 64.4277 0.626899 64.4277 1.70153V5.77271C64.4277 6.46846 64.5714 6.82667 65.023 7.2331L70.4695 12.4271V16.0161H67.1373V12.2825H64.4277V16.643C64.4277 17.7176 65.023 18.3169 66.0699 18.3169H71.5369C72.5838 18.3169 73.1791 17.7176 73.1791 16.6499V12.2894C73.1791 11.6005 73.0354 11.2423 72.5838 10.8083L67.1373 5.63494V2.32839H70.4695V5.77271H73.1791V1.68086C73.1791 0.626899 72.5838 0.0275879 71.5369 0.0275879Z" fill="#6A38EB"/>
<path d="M78.0509 10.1539H82.1426V7.78419H78.0509V2.4455H82.8063V0.0275879H75.3413V18.3169H82.8816V15.899H78.0509V10.1539Z" fill="#6A38EB"/>
<path d="M83.9487 0.0275879V2.4455H86.9183V18.3169H89.6347V2.4455H92.6248V0.0275879H83.9487Z" fill="#6A38EB"/>
<path d="M17.4003 5.26978H16.9487V6.30996H16.4971V12.8197H16.9487V13.9495H17.4003V12.8197H17.8519V6.30996H17.4003V5.26978Z" fill="#6A38EB"/>
<path d="M19.7264 5.81396H19.2748V7.63256H18.8232V9.14117H19.2748V10.8289H19.7264V9.14117H20.178V7.63256H19.7264V5.81396Z" fill="#6A38EB"/>
<path d="M26.6166 9.38233C26.6159 7.43159 26.011 5.52961 24.8862 3.94121C23.7614 2.3528 22.1726 1.15703 20.3411 0.520382C18.5096 -0.116269 16.5264 -0.162114 14.6678 0.389229C12.8091 0.940573 11.1675 2.06166 9.97146 3.59641C8.77542 5.13116 8.08448 7.00319 7.99484 8.95184C7.9052 10.9005 8.42133 12.8288 9.47137 14.4683C10.5214 16.1077 12.0531 17.3768 13.8532 18.0987C15.6532 18.8206 17.6321 18.9595 19.5142 18.496L27.6909 24L24.7486 15.0172C25.9625 13.393 26.6182 11.415 26.6166 9.38233ZM17.3726 16.0643C16.5879 16.0656 15.8093 15.9256 15.0735 15.651V14.535H15.5251V12.1378H15.0735V11.1527H14.622V12.1378H14.1635V14.535H14.6151V15.465C13.8901 15.1359 13.2297 14.6786 12.665 14.1148V14.0528H13.1166V10.3674H12.665V9.31344H12.2134V10.3674H11.7618V13.0058C10.914 11.699 10.5422 10.1368 10.7095 8.58511C10.8769 7.0334 11.5732 5.58802 12.6799 4.49495C13.7866 3.40188 15.2353 2.72866 16.7796 2.58986C18.3238 2.45106 19.868 2.85525 21.1496 3.73365V9.60965H21.6012V10.519H22.0528V9.60965H22.5043V4.9736C23.3264 5.95715 23.8523 7.15667 24.0201 8.43096C24.1879 9.70526 23.9906 11.0013 23.4515 12.1665C22.9123 13.3317 22.0537 14.3176 20.9768 15.0082C19.8999 15.6987 18.6494 16.0651 17.3726 16.0643Z" fill="#6A38EB"/>
</g>
<defs>
<clipPath id="clip0_212_962">
<rect width="92.625" height="24" fill="white"/>
</clipPath>
</defs>
</svg>
